<svg xmlns="http://www.w3.org/2000/svg" viewBox="0 0 32 32" role="img" aria-label="ChatGPT">
  <rect width="32" height="32" rx="8" fill="#0D0D0D"/>
  <g transform="translate(4 4)">
    <path fill="#FFFFFF" d="M22.282 9.821a5.985 5.985 0 0 0-.516-4.91 6.046 6.046 0 0 0-6.51-2.9A6.065 6.065 0 0 0 4.981 4.18a5.985 5.985 0 0 0-3.997 2.9 6.046 6.046 0 0 0 .742 7.097 5.98 5.98 0 0 0 .511 4.911 6.051 6.051 0 0 0 6.514 2.9A6.064 6.064 0 0 0 19.49 19.82a5.985 5.985 0 0 0 3.997-2.9 6.055 6.055 0 0 0-.205-7.099zm-10.241 8.43a6.24 6.24 0 0 1-3.932-1.364l.192-.11 6.466-3.733a1.002 1.002 0 0 0 .486-.852v-4.55l2.728 1.576a.1.1 0 0 1 .054.077v3.76a6.234 6.234 0 0 1-6.004 6.194zM5.466 15.364a6.198 6.198 0 0 1-.708-4.17l.192.114 6.466 3.733a1.002 1.002 0 0 0 .972 0l4.668-2.686.004 3.152a.1.1 0 0 1-.039.085L9.513 18.89a6.222 6.222 0 0 1-4.047-3.526zM4.283 8.79a6.24 6.24 0 0 1 3.241-2.774V9.66a1.002 1.002 0 0 0 .486.852l4.668 2.686-2.728 1.576a.1.1 0 0 1-.098 0L5.422 10.47a6.222 6.222 0 0 1-1.139-1.68zm15.554 3.586-4.668-2.686 2.727-1.576a.1.1 0 0 1 .098 0l4.132 2.385a6.194 6.194 0 0 1 .709 4.171l-.192-.114-6.466-3.733a1.002 1.002 0 0 0-.972 0zm1.6-6.3-6.466 3.733V5.39a1.002 1.002 0 0 0-.486-.852L9.513 1.852a6.234 6.234 0 0 1 6.004 6.194 6.24 6.24 0 0 1 3.92 1.364z"/>
  </g>
</svg>
